<svg xmlns="http://www.w3.org/2000/svg" width="200" height="200" class="icon" viewBox="0 0 1024 1024">
  <defs/>
  <defs/>
  <path fill="#EF6C00" d="M917.333 810.667V512h-42.666v298.667a106.667 106.667 0 00106.666 106.666v-42.666a64 64 0 01-64-64z"/>
  <path fill="#EF6C00" d="M149.33300000000003 512a362.667 362.667 0 10725.334 0 362.667 362.667 0 10-725.334 0z"/>
  <path fill="#B0BEC5" d="M512 106.667A405.333 405.333 0 10917.333 512 405.333 405.333 0 00512 106.667zM384 563.413l-168.32 67.414a317.867 317.867 0 010-237.654L384 460.587a136.747 136.747 0 000 102.826zM512 832a318.507 318.507 0 01-118.827-23.04L460.587 640a136.747 136.747 0 00102.826 0l67.414 168.32A318.507 318.507 0 01512 832zm-64-320a64 64 0 1164 64 64 64 0 01-64-64zm115.413-128a136.747 136.747 0 00-102.826 0l-67.414-168.32a317.867 317.867 0 01237.654 0zM640 563.413a136.747 136.747 0 000-102.826l168.32-67.414a317.867 317.867 0 010 237.654z"/>
  <path fill="#E65100" d="M512 448a64 64 0 00-60.16 85.333 64 64 0 01120.32 0A64 64 0 00512 448zm296.96-12.16A322.987 322.987 0 01832 533.333V512a318.507 318.507 0 00-23.04-118.827L640 460.587a138.027 138.027 0 019.387 38.826zM650.667 554.667a118.4 118.4 0 00-1.92-21.334 130.56 130.56 0 01-8.747 30.08l9.387 3.84a124.373 124.373 0 001.28-12.586zm-277.334 0a124.373 124.373 0 000 12.586l9.387-3.84a130.56 130.56 0 01-7.467-30.08 118.4 118.4 0 00-1.92 21.334zm19.84-339.627l14.934 37.547a310.187 310.187 0 01207.786 0l14.934-37.547a317.867 317.867 0 00-237.654 0zM512 650.667A137.173 137.173 0 01460.587 640l-67.414 168.32c4.907 1.92 10.027 3.413 14.934 5.12l52.48-130.773a136.747 136.747 0 00102.826 0l52.48 130.773c4.907-1.707 10.027-3.2 14.934-5.12L563.413 640A137.173 137.173 0 01512 650.667zM192 512c0 7.253 0 14.293 1.067 21.333A322.987 322.987 0 01214.4 435.84l158.933 64A138.027 138.027 0 01384 460.587l-168.32-67.414A318.507 318.507 0 00192 512z"/>
</svg>
