<svg xmlns="http://www.w3.org/2000/svg" width="200" height="200" class="icon" viewBox="0 0 1024 1024">
  <defs/>
  <defs/>
  <path d="M122.112 168.32a259.84 259.84 0 01375.552-4.48l16.896 16.96 16.896-17.024a259.968 259.968 0 01375.552 4.48c88 92.992 102.848 232 43.84 340.8a309.184 309.184 0 00-226.624-99.392c-173.696 0-314.496 145.024-314.496 323.904 0 80 28.16 153.152 74.752 209.6a79.104 79.104 0 01-26.816-18.688L117.632 564.8c-101.376-112.64-99.392-286.72 4.48-396.48z"/>
  <path d="M731.52 482.496a235.84 235.84 0 110 471.68 235.84 235.84 0 010-471.68zM904.704 595.52a29.696 29.696 0 00-43.328 2.496L671.232 770.88 600 699.2a29.696 29.696 0 00-43.392.96 33.28 33.28 0 00.896 45.504l94.144 94.72a29.696 29.696 0 0044.16-1.728L907.072 640.96a33.28 33.28 0 00-2.368-45.44z"/>
</svg>
