<svg xmlns="http://www.w3.org/2000/svg" width="200" height="200" class="icon" viewBox="0 0 1024 1024">
  <defs/>
  <defs/>
  <path d="M739.648 385.92a53.76 53.76 0 0153.632 53.568 53.76 53.76 0 01-53.632 53.632 53.76 53.76 0 01-53.568-53.632 53.76 53.76 0 0153.568-53.568zm-218.688 0a53.76 53.76 0 0153.632 53.568 53.76 53.76 0 01-53.568 53.632 53.76 53.76 0 01-53.632-53.632 53.76 53.76 0 0153.632-53.568zm-210.112 0a53.76 53.76 0 0153.632 53.568 53.76 53.76 0 01-53.632 53.632 53.76 53.76 0 01-53.568-53.632 53.76 53.76 0 0153.568-53.568z"/>
  <path d="M858.24 107.2a128 128 0 01128 128v431.232a128 128 0 01-128 128H571.072l-243.84 166.592a21.44 21.44 0 01-33.344-20.736l20.928-145.92H170.88a128 128 0 01-128-128V235.264a128 128 0 01128-128h687.36zm0 42.88H170.88a85.12 85.12 0 00-84.736 76.928l-.384 8.192v431.232c0 44.224 33.728 80.64 76.928 84.736l8.192.384h193.344l-21.056 146.56 214.656-146.56H858.24a85.12 85.12 0 0084.736-76.928l.384-8.192V235.2a85.12 85.12 0 00-76.928-84.736l-8.192-.384z"/>
</svg>
