<svg xmlns="http://www.w3.org/2000/svg" width="200" height="200" class="icon" viewBox="0 0 1024 1024">
  <defs/>
  <defs/>
  <path fill="#3F51B5" d="M234.66699999999997 426.667a277.333 277.333 0 10554.666 0 277.333 277.333 0 10-554.666 0z"/>
  <path fill="#5C6BC0" d="M469.333 106.667h85.334V320h-85.334z"/>
  <path fill="#3F51B5" d="M938.667 853.333S769.28 938.667 512 938.667 85.333 853.333 85.333 853.333L234.667 448h554.666z"/>
  <path fill="#1A237E" d="M853.333 853.333H170.667L279.893 556.8a108.587 108.587 0 01146.774-61.653L512 533.333l85.333-38.186a108.587 108.587 0 01145.92 61.653z"/>
  <path fill="#5C6BC0" d="M533.333 768h21.334v85.333h-21.334zm85.334 85.333h-21.334v-64l21.334 21.334v42.666zm42.666-64l-64-64v-64L704 682.667l-42.667 106.666zm-298.666 0l64-64v-64L320 682.667l42.667 106.666zm64 64h-21.334v-42.666l21.334-21.334v64zM469.333 768h21.334v85.333h-21.334zM512 640a42.667 42.667 0 0142.667 42.667v42.666h-85.334v-42.666A42.667 42.667 0 01512 640z"/>
</svg>
