<svg xmlns="http://www.w3.org/2000/svg" width="200" height="200" class="icon" viewBox="0 0 1024 1024">
  <defs/>
  <defs/>
  <path d="M514.56 364.48a150.08 150.08 0 100 300.16 150.08 150.08 0 000-300.16zm0 42.88a107.2 107.2 0 110 214.4 107.2 107.2 0 010-214.4z"/>
  <path d="M665.472 110.784H360.96c-52.416 0-100.992 27.328-128.192 72.064L67.328 454.656a150.08 150.08 0 003.52 161.6l161.856 241.536a150.08 150.08 0 00124.672 66.56h311.68c49.408 0 95.552-24.32 123.584-64.896l166.656-241.664c33.984-49.28 35.456-114.112 3.584-164.864L792.64 181.184a150.08 150.08 0 00-127.168-70.4zm-304.448 42.88h304.448a107.117 107.117 0 0190.816 50.304l170.24 271.744c22.784 36.224 21.76 82.56-2.56 117.76l-166.592 241.6a107.2 107.2 0 01-88.32 46.336h-311.68c-35.776 0-69.12-17.792-89.088-47.488L106.432 592.384a107.2 107.2 0 01-2.496-115.456L269.44 205.12a107.066 107.066 0 0191.52-51.456z"/>
</svg>
