<svg xmlns="http://www.w3.org/2000/svg" width="200" height="200" class="icon" viewBox="0 0 1024 1024">
  <defs/>
  <defs/>
  <path fill="#607D8B" d="M149.333 768c0 188.587 174.08 149.333 362.667 149.333S874.667 956.587 874.667 768 700.587 106.667 512 106.667 149.333 579.413 149.333 768z"/>
  <path fill="#E1F5FE" d="M724.053 450.133C712.96 350.933 622.293 192 512 192S311.04 350.933 299.947 450.133A90.453 90.453 0 00256 525.227c0 50.773 47.787 93.44 106.667 93.44a101.547 101.547 0 0013.866-1.28c19.2 121.386 60.374 257.28 135.467 257.28s116.267-135.894 135.467-257.28a101.547 101.547 0 0013.866 1.28C720.213 618.667 768 576 768 525.227a90.453 90.453 0 00-43.947-75.094z"/>
  <path fill="#455A64" d="M554.667 682.667C554.667 729.813 535.467 832 512 832s-42.667-102.187-42.667-149.333 19.2-64 42.667-64 42.667 16.853 42.667 64zm-21.334-94.08c0 11.733-9.6 8.746-21.333 8.746s-21.333 2.987-21.333-8.746S500.267 512 512 512s21.333 64 21.333 76.587zM554.667 448c0 51.627 38.613 106.667 85.333 106.667a37.973 37.973 0 0042.667-35.627c0-25.813-30.08-28.587-58.667-59.093C587.947 421.333 594.133 384 578.56 384s-23.893 25.173-23.893 64zm-85.334 0c0 51.627-38.613 106.667-85.333 106.667a37.973 37.973 0 01-42.667-35.627c0-25.813 30.08-28.587 58.667-59.093C436.053 421.333 429.867 384 445.44 384s23.893 25.173 23.893 64z"/>
</svg>
