<svg xmlns="http://www.w3.org/2000/svg" width="200" height="200" class="icon" viewBox="0 0 1024 1024">
  <defs/>
  <defs/>
  <path d="M510.72 269.184c-191.36 0-343.616 88.96-443.328 221.824a22.4 22.4 0 00.192 27.136l7.424 9.6c100.736 128 249.728 212.032 435.712 212.032 189.056 0 372.608-98.56 447.168-223.872a22.4 22.4 0 00-.256-23.36l-6.656-10.56c-79.936-120.96-257.408-212.8-440.32-212.8zm17.92 45.12c155.712 5.504 304.576 81.984 376.704 180.48l6.784 9.728-7.872 11.2c-74.432 100.736-231.872 179.264-393.6 179.264l-20.352-.384c-154.88-5.568-280.192-75.136-368.64-180.416l-8-9.792 11.584-13.952c91.52-106.88 222.912-176.448 385.472-176.448l17.92.32z"/>
  <path d="M523.2 354.304a22.4 22.4 0 010 44.8c-56.064 0-101.12 42.688-101.12 94.72s45.056 94.72 101.12 94.72c56.128 0 101.12-42.688 101.12-94.72a22.4 22.4 0 0144.8 0c0 77.312-65.536 139.52-145.92 139.52-80.32 0-145.92-62.208-145.92-139.52 0-77.312 65.6-139.52 145.92-139.52z"/>
</svg>
